<?xml version="1.0" encoding="UTF-8" standalone="no"?>
<!DOCTYPE svg PUBLIC "-//W3C//DTD SVG 1.1//EN" "http://www.w3.org/Graphics/SVG/1.1/DTD/svg11.dtd">
<svg width="100%" height="100%" viewBox="0 0 32 32" version="1.1" xmlns="http://www.w3.org/2000/svg" xmlns:xlink="http://www.w3.org/1999/xlink" xml:space="preserve" xmlns:serif="http://www.serif.com/" style="fill-rule:evenodd;clip-rule:evenodd;stroke-linejoin:round;stroke-miterlimit:2;">
    <g transform="matrix(0.125,0,0,0.125,0,0)">
        <path d="M136,40L136,216C136,220.389 132.389,224 128,224C123.611,224 120,220.389 120,216L120,40C120,35.611 123.611,32 128,32C132.389,32 136,35.611 136,40ZM96,120L35.31,120L53.66,101.66C55.161,100.159 56.004,98.122 56.004,96C56.004,91.609 52.391,87.996 48,87.996C45.878,87.996 43.841,88.839 42.34,90.34L10.34,122.34C8.838,123.84 7.994,125.878 7.994,128C7.994,130.122 8.838,132.16 10.34,133.66L42.34,165.66C43.841,167.161 45.878,168.004 48,168.004C52.391,168.004 56.004,164.391 56.004,160C56.004,157.878 55.161,155.841 53.66,154.34L35.31,136L96,136C100.389,136 104,132.389 104,128C104,123.611 100.389,120 96,120ZM245.66,122.34L213.66,90.34C212.159,88.839 210.122,87.996 208,87.996C203.609,87.996 199.996,91.609 199.996,96C199.996,98.122 200.839,100.159 202.34,101.66L220.69,120L160,120C155.611,120 152,123.611 152,128C152,132.389 155.611,136 160,136L220.69,136L202.34,154.34C200.839,155.841 199.996,157.878 199.996,160C199.996,164.391 203.609,168.004 208,168.004C210.122,168.004 212.159,167.161 213.66,165.66L245.66,133.66C247.162,132.16 248.006,130.122 248.006,128C248.006,125.878 247.162,123.84 245.66,122.34Z" style="fill:rgb(77,157,224);fill-rule:nonzero;"/>
    </g>
</svg>
